<svg xmlns="http://www.w3.org/2000/svg" version="1.1" xmlns:xlink="http://www.w3.org/1999/xlink" xmlns:svgjs="http://svgjs.dev/svgjs" width="2000" height="1247" viewBox="0 0 2000 1247"><g transform="matrix(1,0,0,1,-1.2121212121212466,0.504858299595071)"><svg viewBox="0 0 396 247" data-background-color="#ffffff" preserveAspectRatio="xMidYMid meet" height="1247" width="2000" xmlns="http://www.w3.org/2000/svg" xmlns:xlink="http://www.w3.org/1999/xlink"><g id="tight-bounds" transform="matrix(1,0,0,1,0.2400000000000091,-0.09999999999999432)"><svg viewBox="0 0 395.52 247.2" height="247.2" width="395.52"><g><svg></svg></g><g><svg viewBox="0 0 395.52 247.2" height="247.2" width="395.52"><g transform="matrix(1,0,0,1,89.4663825192802,47.215199999999996)"><svg viewBox="0 0 216.58723496143958 152.7696" height="152.7696" width="216.58723496143958"><g><svg viewBox="0 0 216.58723496143958 152.7696" height="152.7696" width="216.58723496143958"><g><svg viewBox="0 0 216.58723496143958 152.7696" height="152.7696" width="216.58723496143958"><g><svg viewBox="0 0 216.58723496143958 152.7696" height="152.7696" width="216.58723496143958"><g id="textblocktransform"><svg viewBox="0 0 216.58723496143958 152.7696" height="152.7696" width="216.58723496143958" id="textblock"><g><svg viewBox="0 0 216.58723496143958 152.7696" height="152.7696" width="216.58723496143958"><g transform="matrix(1,0,0,1,0,0)"><svg width="216.58723496143958" viewBox="1 -38.9 55.15 38.9" height="152.7696" data-palette-color="#d4e4bc"><path d="M56.15-38.9L56.15-30.7 53.65-30.7 53.65-8.2 56.15-8.2 56.15 0 37.25 0 37.25-8.2 39.65-8.2 39.65-25.7 31.15 0 23.75 0 15-25.45 15-8.2 17.4-8.2 17.4 0 1 0 1-8.2 3.5-8.2 3.5-30.7 1-30.7 1-38.9 23.9-38.9 29.1-23.3 34.1-38.9 56.15-38.9Z" opacity="1" transform="matrix(1,0,0,1,0,0)" fill="#ffffff" class="wordmark-text-0" data-fill-palette-color="primary" id="text-0"></path></svg></g></svg></g></svg></g></svg></g></svg></g></svg></g></svg></g><g><path d="M0 123.6c0-68.262 55.338-123.6 123.6-123.6 30.402 0 58.24 10.976 79.768 29.183l-11.147 0c-19.26-14.022-42.974-22.294-68.621-22.295-64.458 0-116.712 52.254-116.712 116.712 0 64.458 52.254 116.712 116.712 116.712 25.647 0 49.361-8.272 68.621-22.295l11.147 0c-21.528 18.206-49.366 29.183-79.768 29.183-68.262 0-123.6-55.338-123.6-123.6z" fill="#ffffff" stroke="transparent" data-fill-palette-color="tertiary"></path></g></svg></g><defs></defs></svg><rect width="395.52" height="247.2" fill="none" stroke="none" visibility="hidden"></rect></g></svg></g></svg>